<svg xmlns="http://www.w3.org/2000/svg" version="1.1" xmlns:xlink="http://www.w3.org/1999/xlink" xmlns:svgjs="http://svgjs.dev/svgjs" width="1500" height="1500" viewBox="0 0 1500 1500"><g transform="matrix(1,0,0,1,-0.21332335329316265,-0.21332335329350371)"><svg viewBox="0 0 334 334" data-background-color="#ffffff" preserveAspectRatio="xMidYMid meet" height="1500" width="1500" xmlns="http://www.w3.org/2000/svg" xmlns:xlink="http://www.w3.org/1999/xlink"><g id="tight-bounds" transform="matrix(1,0,0,1,0.04749999999998522,0.04750000000001364)"><svg viewBox="0 0 333.90454557049503 333.90454557049503" height="333.90454557049503" width="333.90454557049503"><g><svg></svg></g><g><svg viewBox="0 0 333.90454557049503 333.90454557049503" height="333.90454557049503" width="333.90454557049503"><g><path d="M0 166.952c0-92.205 74.747-166.952 166.952-166.952 92.205 0 166.952 74.747 166.953 166.952 0 92.205-74.747 166.952-166.953 166.953-92.205 0-166.952-74.747-166.952-166.953zM166.952 329.156c89.583 0 162.204-72.621 162.204-162.204 0-89.583-72.621-162.204-162.204-162.204-89.583 0-162.204 72.621-162.204 162.204 0 89.583 72.621 162.204 162.204 162.204z" data-fill-palette-color="tertiary" fill="#093d65" stroke="transparent"></path><ellipse rx="160.27418187383762" ry="160.27418187383762" cx="166.95227278524752" cy="166.95227278524752" fill="#093d65" stroke="transparent" stroke-width="0" fill-opacity="1" data-fill-palette-color="tertiary"></ellipse></g><g transform="matrix(1,0,0,1,85.91495712908805,71.17305217166896)"><svg viewBox="0 0 162.07463131231893 191.55844122715712" height="191.55844122715712" width="162.07463131231893"><g><svg viewBox="0 0 213.1584412271571 251.9351634815734" height="191.55844122715712" width="162.07463131231893"><g transform="matrix(1,0,0,1,0,123.54507443669831)"><svg viewBox="0 0 213.1584412271571 128.39008904487508" height="128.39008904487508" width="213.1584412271571"><g id="textblocktransform"><svg viewBox="0 0 213.1584412271571 128.39008904487508" height="128.39008904487508" width="213.1584412271571" id="textblock"><g><svg viewBox="0 0 213.1584412271571 69.24747909194396" height="69.24747909194396" width="213.1584412271571"><g transform="matrix(1,0,0,1,0,0)"><svg width="213.1584412271571" viewBox="1.25 -35.3 110.2 35.8" height="69.24747909194396" data-palette-color="#ffffff"><path d="M21.4-9.25L27.4-35 40.75-35 40.75-34.05 38-34.05 38-0.95 40.75-0.95 40.75 0 25.5 0 25.5-0.95 28.25-0.95 28.25-32.2 28.05-32.2 20.55 0 14.3 0 5.5-32.35 5.3-32.35 5.3-0.95 8.05-0.95 8.05 0 1.25 0 1.25-0.95 4-0.95 4-34.05 1.25-34.05 1.25-35 14.75-35 21.4-9.25ZM60.05-0.95L63.6-0.95 59.95-11.75 50.05-11.75 46.2-0.95 49.95-0.95 49.95 0 42.3 0 42.3-0.95 44.65-0.95 57.4-35.3 61.5-35.3 74.1-0.95 76.4-0.95 76.4 0 60.05 0 60.05-0.95ZM59.55-12.85L55.2-25.95 50.5-12.85 59.55-12.85ZM93.1-17.7L93.1-17.7 90.45-17.7 90.45-0.95 93.7-0.95 93.7 0 77.45 0 77.45-0.95 80.7-0.95 80.7-34.05 77.45-34.05 77.45-35 92.55-35Q99.05-35 101.77-34.33 104.5-33.65 105.6-32.7L105.6-32.7Q108-30.75 108-26.5 108-22.25 105.9-20.43 103.8-18.6 99.5-18.25L99.5-18.25 99.5-18.1Q103.55-17.55 105.15-15.7 106.75-13.85 106.75-9.5L106.75-9.5 106.75-6.85Q106.75-4.25 107.02-3.35 107.3-2.45 108.2-2.45 109.09-2.45 109.62-3.28 110.15-4.1 110.59-6.75L110.59-6.75 111.45-6.65Q110.9-2.4 109.52-0.95 108.15 0.5 104.05 0.5 99.95 0.5 98.22-1.43 96.5-3.35 96.5-8.65L96.5-8.65 96.5-12.3Q96.5-15.1 95.77-16.4 95.05-17.7 93.1-17.7ZM92.1-34.05L90.45-34.05 90.45-18.65 92.05-18.65Q94.9-18.65 96.27-20.4 97.65-22.15 97.65-26.1L97.65-26.1 97.65-27.55Q97.65-31.5 96.32-32.77 95-34.05 92.1-34.05L92.1-34.05Z" opacity="1" transform="matrix(1,0,0,1,0,0)" fill="#ffffff" class="wordmark-text-0" data-fill-palette-color="quaternary" id="text-0"></path></svg></g></svg></g><g transform="matrix(1,0,0,1,0,85.59514696605372)"><svg viewBox="0 0 213.1584412271571 42.794942078821364" height="42.794942078821364" width="213.1584412271571"><g transform="matrix(1,0,0,1,0,0)"><svg width="213.1584412271571" viewBox="0.55 -21.8 124.27 24.95" height="42.794942078821364" data-palette-color="#ffffff"><path d="M2.5 0.5L2.5 0.5Q1.85 1.25 2.23 1.7 2.6 2.15 3.08 2.15 3.55 2.15 4.05 2L4.05 2Q6.2 1.35 8.22-0.58 10.25-2.5 10.25-4.5L10.25-4.5Q10.25-5.6 7.8-6.9L7.8-6.9Q6.65-7.5 6.5-7.6L6.5-7.6Q5.15-8.5 4.8-9.4L4.8-9.4Q4.1-8.2 2.55-5.95L2.55-5.95Q2.2-5.55 1.9-5.78 1.6-6 1.85-6.4L1.85-6.4Q3.9-9.2 4.55-11.1L4.55-11.1Q4.9-13.85 8.55-16.05 12.2-18.25 15.2-18.25L15.2-18.25Q17.1-18.25 17.88-17.57 18.65-16.9 18.65-16.25 18.65-15.6 18.28-14.75 17.9-13.9 16.75-13.15L16.75-13.15Q16.45-12.95 16.25-13.25L16.25-13.25Q16.15-13.55 16.68-14.08 17.2-14.6 17.35-15.5 17.5-16.4 16.55-16.6L16.55-16.6Q16.4-16.6 16.25-16.6L16.25-16.6Q14.3-16.6 11.38-15.15 8.45-13.7 6.8-11.4L6.8-11.4Q6.15-10.55 6.15-9.68 6.15-8.8 7.35-8.1L7.35-8.1Q7.85-7.8 9.05-7.15 10.25-6.5 10.75-6.2 11.25-5.9 11.95-5.25 12.65-4.6 12.7-4.05L12.7-4.05Q12.95-2.55 11.3-0.75L11.3-0.75Q8.95 1.85 4.3 2.9L4.3 2.9Q3.25 3.15 2.18 3.15 1.1 3.15 0.7 2.35L0.7 2.35Q0.55 2.15 0.55 1.73 0.55 1.3 1.35 0.35L1.35 0.35Q2.1-0.4 3.75-1.1L3.75-1.1Q3.9-1.15 4-1.05 4.1-0.95 4.05-0.8 4-0.65 3.53-0.45 3.05-0.25 2.5 0.5ZM35.69-13.95L36.34-14Q40.19-14.35 41.02-14.35 41.84-14.35 41.84-14.1L41.84-14.1Q41.84-13.8 40.67-13.48 39.49-13.15 34.94-12.65L34.94-12.65Q34.69-12.2 34.34-11.6L34.34-11.6Q33.59-10.4 33.54-10.15L33.54-10.15Q30.69-4.45 30.54-2.9L30.54-2.9Q30.49-2.45 30.49-1.75 30.49-1.05 30.89-0.6L30.89-0.6Q31.59 0.2 32.89-0.5 34.19-1.2 36.52-3.3 38.84-5.4 40.29-7.4L40.29-7.4Q40.49-7.65 40.79-7.5L40.79-7.5Q41.54-7.15 38.19-3.55L38.19-3.55Q34.99-0.1 32.84 0.7L32.84 0.7Q31.59 1.15 30.74 1.15L30.74 1.15Q28.74 1.15 28.09-0.75L28.09-0.75Q27.99-1.1 27.99-1.6L27.99-1.6Q27.99-3.35 29.59-6.9L29.59-6.9Q29.34-6.35 27.64-4.4L27.64-4.4Q27.19-3.9 26.94-4.4L26.94-4.4Q26.89-4.5 26.89-4.67 26.89-4.85 27.09-5.1L27.09-5.1Q29.54-8.15 30.94-10.25L30.94-10.25Q30.94-10.3 32.04-12.35L32.04-12.35Q31.54-12.25 31.02-12.25 30.49-12.25 30.24-12.58 29.99-12.9 30.19-13.35L30.19-13.35Q30.54-14.15 32.84-14.25L32.84-14.25Q32.89-14.35 33.04-14.35L33.04-14.35 35.54-19Q35.74-19.4 35.99-19.83 36.24-20.25 36.37-20.48 36.49-20.7 36.64-20.95 36.79-21.2 36.89-21.3 36.99-21.4 37.09-21.5L37.09-21.5Q37.29-21.8 38.27-21.8 39.24-21.8 39.59-21.25L39.59-21.25Q39.74-21.05 39.74-20.58 39.74-20.1 39.39-19.53 39.04-18.95 38.64-18.7 38.24-18.45 38.09-18.15L38.09-18.15 35.69-13.95ZM61.54-5.5L61.54-5.5Q62.44-7.35 62.44-8.35 62.44-9.35 62.21-9.93 61.99-10.5 62.41-10.9 62.84-11.3 63.49-11.2L63.49-11.2Q64.49-10.95 64.49-8.95 64.49-6.95 62.14-3.7L62.14-3.7Q62.19-2.35 63.54-2.35 64.89-2.35 67.64-5.25L67.64-5.25Q68.94-6.75 69.26-7.2 69.59-7.65 69.84-7.53 70.09-7.4 70.09-7.3L70.09-7.3Q70.09-6.8 68.29-4.7L68.29-4.7Q65.44-1.2 63.24-1.2L63.24-1.2Q61.79-1.2 61.19-2.45L61.19-2.45Q60.19-1.4 59.24-0.5L59.24-0.5Q57.29 1.15 54.89 1.15L54.89 1.15Q53.54 1.15 52.64 0.5L52.64 0.5Q50.89-0.55 50.89-3.25L50.89-3.25Q50.89-6.2 52.89-9.25L52.89-9.25Q54.04-11.05 55.59-12.4L55.59-12.4Q58.04-14.55 60.24-14.55L60.24-14.55Q60.79-14.55 61.29-14.4L61.29-14.4Q62.79-13.9 62.79-12.5L62.79-12.5Q62.79-11.35 62.19-11.35L62.19-11.35Q61.94-11.45 61.94-12.1L61.94-12.1Q61.94-13 60.94-13L60.94-13Q59.19-13 56.44-9.8 53.69-6.6 53.14-3.35L53.14-3.35Q53.04-2.8 53.04-2.13 53.04-1.45 53.49-0.58 53.94 0.3 55.16 0.3 56.39 0.3 57.84-0.8 59.29-1.9 60.44-3.6L60.44-3.6 60.29-3.9Q60.09-4.7 60.49-5.2 60.89-5.7 61.54-5.5ZM86.88 1.25L86.88 1.25Q84.33 1.25 84.33-1.83 84.33-4.9 88.73-9.4L88.73-9.4Q89.08-9.75 89.23-9.95L89.23-9.95 89.58-10.45Q90.28-11.4 90.23-11.65L90.23-11.65 90.08-12.1Q89.88-12.7 88.43-12.98 86.98-13.25 86.08-13.25L86.08-13.25Q81.58-6.9 80.88-6 80.18-5.1 79.93-5.25 79.68-5.4 79.68-5.6 79.68-5.8 79.98-6.2L79.98-6.2Q82.68-9.5 84.63-13.25L84.63-13.25Q84.03-13.35 83.73-13.68 83.43-14 83.68-14.78 83.93-15.55 85.21-16.85 86.48-18.15 87.43-18.6 88.38-19.05 88.63-19.15 88.88-19.25 89.18-19.25L89.18-19.25Q89.78-19.25 88.78-17.45L88.78-17.45 86.83-14.35Q89.08-14.2 90.68-14.2L90.68-14.2 92.43-14.25Q93.28-14.25 93.68-14.03 94.08-13.8 93.88-13.25L93.88-13.25Q93.53-12.3 92.13-10.7L92.13-10.7Q89.13-7.2 87.63-3.25L87.63-3.25Q87.28-2.3 87.28-1.6L87.28-1.6Q87.28-0.15 88.33-0.15L88.33-0.15Q88.68-0.15 89.66-0.7 90.63-1.25 92.93-3.33 95.23-5.4 96.63-7.4L96.63-7.4Q96.83-7.65 97.11-7.53 97.38-7.4 97.38-7.28 97.38-7.15 97.28-7L97.28-7Q96.53-5.65 94.58-3.55 92.63-1.45 90.78-0.15L90.78-0.15Q88.98 1.25 86.88 1.25ZM119.12-14.55L119.12-14.55Q121.82-14.55 121.82-11.95L121.82-11.95Q121.82-10.6 121.07-9.75L121.07-9.75Q119.82-7.9 117.02-6.53 114.22-5.15 112.27-5L112.27-5Q111.57-4.95 111.52-5.4L111.52-5.4Q111.47-5.6 111.65-5.65 111.82-5.7 111.92-5.7L111.92-5.7Q113.07-5.8 114.87-6.8L114.87-6.8Q118.22-8.6 119.77-10.5L119.77-10.5Q120.42-11.4 120.42-12.23 120.42-13.05 119.62-13.05L119.62-13.05Q118.97-13.05 117.87-12.5L117.87-12.5Q115.52-11.4 112.92-8.68 110.32-5.95 109.52-3.35L109.52-3.35Q109.27-2.55 109.27-1.78 109.27-1 109.92-0.3 110.57 0.4 111.92 0.4L111.92 0.4Q113.42 0.4 115.37-0.4L115.37-0.4Q121.02-2.7 124.07-7.35L124.07-7.35Q124.37-7.75 124.62-7.5L124.62-7.5Q124.82-7.4 124.82-7.25 124.82-7.1 124.67-6.9L124.67-6.9Q123.17-4.4 120.87-2.45L120.87-2.45Q116.42 1.35 112.22 1.35L112.22 1.35Q108.62 1.35 107.17-0.8L107.17-0.8Q106.62-1.65 106.62-2.85 106.62-4.05 107.27-5.7L107.27-5.7Q108.52-8.55 112.62-11.55 116.72-14.55 119.12-14.55Z" opacity="1" transform="matrix(1,0,0,1,0,0)" fill="#ffffff" class="slogan-text-1" data-fill-palette-color="quaternary" id="text-1"></path></svg></g></svg></g></svg></g></svg></g><g transform="matrix(1,0,0,1,40.713262274387006,0)"><svg viewBox="0 0 131.7319166783831 107.19740656258855" height="107.19740656258855" width="131.7319166783831"><g><svg xmlns="http://www.w3.org/2000/svg" xmlns:xlink="http://www.w3.org/1999/xlink" version="1.1" x="0" y="0" viewBox="4.000383918363299 13.036999999999995 92.11994941497002 74.96300000000001" enable-background="new 0 0 100 100" xml:space="preserve" height="107.19740656258855" width="131.7319166783831" class="icon-icon-0" data-fill-palette-color="quaternary" id="icon-0"><g fill="#ffffff" data-fill-palette-color="quaternary"><path fill="#ffffff" d="M4.541 44.063c-1.097 2.86-0.185 5.37-0.185 5.37 1.14 2.965 2.499 3.449 5.354 3.449 0.958 0 1.853-0.205 2.622-0.553V88H50.11V66.366h23.608V88h14.169V52.329c0.772 0.349 1.665 0.553 2.625 0.553 2.853 0 4.73-2.364 5.167-3.954 0 0 0.993-2.994 0-4.865-1.687-3.177-14.424-31.026-14.424-31.026H18.964M14.903 48.926V48.47h-0.024v-4.407l9.767-24.945h7.801L24.76 44.063v4.865 0.002c-0.002 2.181-2.208 3.95-4.929 3.95C17.11 52.88 14.903 51.111 14.903 48.926zM33.568 74.542H20.792V61.767h12.775V74.542zM44.954 44.063v4.407 0.456c0 2.184-2.207 3.954-4.927 3.954-2.724 0-4.93-1.769-4.93-3.954V48.47v-4.407l4.083-24.945h7.778L44.954 44.063zM60.22 52.88c-2.721 0-4.927-1.769-4.927-3.954V48.47v-4.407l-2.006-24.945h7.754l4.081 24.945v4.865c0 0.065 0.011 0.132 0.015 0.196C65.006 51.215 62.857 52.88 60.22 52.88zM85.342 48.47h-0.025v0.456c0 2.184-2.206 3.954-4.929 3.954-2.721 0-4.927-1.769-4.927-3.954V48.47v-4.407l-7.688-24.945h7.802l9.768 24.945V48.47z" data-fill-palette-color="quaternary"></path></g></svg></g></svg></g><g></g></svg></g></svg></g></svg></g><defs></defs></svg><rect width="333.90454557049503" height="333.90454557049503" fill="none" stroke="none" visibility="hidden"></rect></g></svg></g></svg>